Coordinates
version=1
nRows=18
nColumns=19
inDegrees=yes

Units are S.I. units (second, meters, Newtons, ...)
If the header above contains a line with 'inDegrees', this indicates whether rotational values are in degrees (yes) or radians (no).

endheader
time	pelvis_tilt	pelvis_list	pelvis_rotation	pelvis_tx	pelvis_ty	pelvis_tz	hip_flexion_r	hip_adduction_r	hip_rotation_r	knee_angle_r	knee_angle_r_beta	ankle_angle_r	hip_flexion_l	hip_adduction_l	hip_rotation_l	knee_angle_l	knee_angle_l_beta	ankle_angle_l
     13.29333333	     -0.10587252	     12.90563881	     -4.21292526	      2.37755036	      1.01298795	      1.02556765	    -19.83843496	    -17.82053430	     -2.96087134	     73.41864136	      1.28139702	    -20.95634860	     34.67846748	     12.36500544	    -13.46132153	     26.46515249	      0.46190405	     -1.86736305
     13.30000000	      0.42494172	     12.67223010	     -3.82257818	      2.37729944	      1.00953043	      1.02671581	    -18.85843807	    -16.66333622	     -1.69636680	     77.54222288	      1.35336710	    -20.41543076	     33.57573416	     12.24352927	    -13.93900176	     27.94012056	      0.48764710	     -1.61449927
     13.30666667	      0.58753395	     12.36834756	     -3.30622974	      2.37696361	      1.00540849	      1.02773813	    -17.41260039	    -15.43864290	     -0.65417395	     81.63714642	      1.42483700	    -19.78676816	     32.87165929	     12.01402665	    -14.33490721	     29.71387652	      0.51860498	     -1.03054554
     13.31333333	      1.12019976	     12.36155265	     -2.64353568	      2.37666192	      1.00130576	      1.02859510	    -16.48326777	    -14.72092491	     -0.35841067	     85.50562094	      1.49235461	    -18.90276334	     31.75069566	     12.18093576	    -14.67384016	     31.62532672	      0.55196608	      0.02819453
     13.32000000	      0.83824260	     11.99823801	     -1.95469783	      2.37586484	      0.99635176	      1.02925440	    -14.37404631	    -13.57788637	      0.28281971	     89.47857894	      1.56169581	    -18.10397212	     31.57791049	     11.92155248	    -14.68859778	     33.91195743	      0.59187531	      1.42967215
     13.32666667	      0.76150577	     11.87038996	     -1.14900463	      2.37493488	      0.99144905	      1.02968021	    -12.51253590	    -12.89797869	      0.40736902	     93.26589451	      1.62779694	    -17.12275849	     31.17149235	     12.02708827	    -14.48075249	     36.28599298	      0.63331005	      3.27730984
     13.33333333	      0.54141655	     11.74948518	     -0.28914605	      2.37367581	      0.98642153	      1.02988554	    -10.36973520	    -12.36933506	      0.41471403	     96.95996231	      1.69227058	    -16.11130821	     30.92304927	     12.22358234	    -13.98017786	     38.77827053	      0.67680850	      5.46285373
     13.34000000	      0.19658447	     11.63257242	      0.63987354	      2.37208046	      0.98141683	      1.02983092	     -7.96496234	    -12.00229112	      0.31407522	    100.53065987	      1.75459101	    -15.11931481	     30.77722054	     12.54252168	    -13.16282982	     41.30231641	      0.72086141	      7.88728750
     13.34666667	     -0.28291589	     11.47445903	      1.57005577	      2.37010974	      0.97653153	      1.02963885	     -5.23797423	    -11.72732472	      0.24336736	    103.97100616	      1.81463638	    -14.17153993	     30.71320297	     12.90492327	    -12.10267549	     43.77727445	      0.76405758	     10.45846434
     13.35333333	     -0.71575811	     11.34989771	      2.53619593	      2.36781531	      0.97205164	      1.02924404	     -2.43547722	    -11.66050787	      0.10363347	    107.21000752	      1.87116762	    -13.23778341	     30.47725919	     13.40624578	    -10.82417488	     46.08702571	      0.80437034	     13.02120502
     13.36000000	     -1.41331215	     11.05493811	      3.49825332	      2.36512282	      0.96778349	      1.02880117	      0.88976814	    -11.47329753	      0.12408335	    110.26723618	      1.92452633	    -12.49957881	     30.39647192	     13.78655470	     -9.35055702	     48.19844282	      0.84122152	     15.55234879
     13.36666667	     -1.98940214	     10.78166633	      4.47795672	      2.36215674	      0.96415758	      1.02829649	      4.20993633	    -11.44716981	      0.10025158	    113.03750338	      1.97287661	    -11.78394848	     29.98032385	     14.21763932	     -7.77238357	     49.98857153	      0.87246516	     17.91491202
     13.37333333	     -2.56578820	     10.42776314	      5.34720492	      2.35901215	      0.96111953	      1.02789527	      7.73341623	    -11.39285295	      0.24182787	    115.51510365	      2.01611889	    -11.22860868	     29.35379261	     14.50326503	     -6.21171103	     51.41129872	      0.89729644	     20.12561981
     13.38000000	     -2.96156195	     10.09605201	      6.25496978	      2.35580594	      0.95889759	      1.02746251	     11.11748412	    -11.43933115	      0.31773729	    117.59609307	      2.05243901	    -10.65816689	     28.27115875	     14.76854218	     -4.59105452	     52.40874762	      0.91470520	     22.10288182
     13.38666667	     -3.12622056	      9.63159329	      7.09635001	      2.35289725	      0.95775821	      1.02717289	     14.29678290	    -11.33697151	      0.35828860	    119.16553953	      2.07983102	    -10.19388616	     26.65426033	     14.75071585	     -2.98327018	     52.94713202	      0.92410178	     23.90326353
     13.39333333	     -2.37686380	      8.95667037	      8.10969488	      2.35135802	      0.95910419	      1.02666325	     16.11440482	    -10.99796898	     -0.21426841	    119.75836037	      2.09017770	     -9.75461996	     23.57332370	     14.35735861	     -1.05171948	     52.85889648	      0.92256178	     25.53679427
     13.40000000	     -1.37333952	      8.16141682	      9.12789050	      2.35003851	      0.96145373	      1.02606267	     17.59983590	    -10.55221304	     -0.96718424	    119.85942865	      2.09194167	     -9.23591988	     20.00499421	     13.61025693	      0.90221346	     52.30289607	      0.91285774	     26.89018463
     13.40666667	     -0.84719690	      7.39499962	      9.74060449	      2.34824470	      0.96326325	      1.02572013	     19.88285182	    -10.16468869	     -1.20801487	    119.88896266	      2.09245714	     -8.67692361	     16.95538809	     12.63655368	      2.23544572	     51.43454190	      0.89770211	     28.00462287
